<?xml version="1.0" encoding="UTF-8"?>
<svg id="Layer_1" data-name="Layer 1" xmlns="http://www.w3.org/2000/svg" viewBox="0 0 262.9 211.9">
  <defs>
    <style>
      .cls-1 {
        fill-rule: evenodd;
      }

      .cls-1, .cls-2 {
        fill: #d18142;
      }

      .cls-3 {
        fill: none;
        opacity: .48;
      }
    </style>
  </defs>
  <path class="cls-2" d="m242.1,170.3s-.1.1-.1.2c0-.1.1-.2.1-.2Z"/>
  <g>
    <g>
      <path class="cls-2" d="m135.2,182.61c4.31.41,8.35.79,12.06,1.14.74.07,1.47.14,2.19.21,1.12.1,2.21.2,3.26.3,4.34.41,8.03.76,10.91,1.03,1.15.11,2.17.21,3.05.29.24.02.49.05.73.07,1.78.17,3.64.35,5.58.54,1.14.1,2.31.21,3.5.33,4.29.4,8.85.83,13.47,1.26,1.18.1,2.37.21,3.55.32.16.02.33.03.49.05.61.06,1.22.11,1.82.17,10.12.94,20.22,1.87,28.46,2.66.2,0,.5-.1.7-.2.2-.1,4.2-4.6,4.3-4.9-.09-.09,1.13-13.41,1.37-15.9.02-.26.03-.4.03-.4v-.04l.76-8.02h0s.04-.44.04-.44l2.3-24.3s-70.82-6.9-77.59-8.07c-.3-.05-.48-.09-.51-.13-1.03-.09-2.08-.19-3.14-.29-2.45-.22-4.97-.46-7.53-.69-.98-.1-1.97-.19-2.96-.28-4.4-.41-8.86-.84-13.24-1.25-1.11-.1-2.22-.2-3.32-.31-1.72-.16-3.42-.32-5.09-.47-1.04-.09-2.06-.19-3.07-.28-.12-.01-.23-.02-.35-.03l-5.25-.51-.87-.09h-.11s-.62-.07-.62-.07l-.35-.03c-.45-.04-.9-.08-1.35-.12-.46-.04-.92-.09-1.39-.13-1.79-.17-3.63-.34-5.48-.52-1.6-.15-3.22-.31-4.83-.46-1.87-.18-3.73-.36-5.57-.53-1.71-.17-3.4-.32-5.04-.47-.25-.03-.49-.05-.74-.07-2.4-.23-4.93-.47-7.54-.72-1.31-.12-2.65-.25-4.01-.37-3.63-.35-7.41-.7-11.26-1.06-4-.37-8.07-.75-12.14-1.12-11.47-1.06-22.92-2.11-32.55-3.03l-4.9,5.1-4.6,49m219,15.1l-26.93-2.68-.17-.02c-.65-.06-1.31-.12-1.97-.18-.15-.02-.31-.03-.46-.04-1.42-.14-2.88-.28-4.37-.42-3.01-.28-6.14-.58-9.39-.88-1.08-.1-2.18-.21-3.29-.32-4.83-.45-9.89-.92-15.13-1.41-.6-.06-1.21-.12-1.82-.17-2.25-.22-4.52-.43-6.83-.65-1.13-.1-2.28-.21-3.43-.32-3.16-.3-6.37-.6-9.62-.91-1.03-.09-2.05-.18-3.09-.28-1.16-.11-2.33-.22-3.5-.33-4.01-.38-8.06-.76-12.14-1.13-39.92-3.75-82.42-7.72-111.06-10.36.16-1.7.33-3.4.49-5.11.01-.07.01-.14.02-.21.26-2.7.52-5.42.77-8.14,0-.12.03-.25.03-.38.2-2.02.39-4.04.58-6.07.04-.44.08-.89.12-1.33.24-2.49.47-4.97.7-7.46.06-.63.11-1.27.17-1.9.05-.55.11-1.11.16-1.66.04-.43.08-.86.11-1.29.15-1.62.3-3.24.45-4.85.06-.6.11-1.2.16-1.8.22-2.35.43-4.68.64-7,10.8,1.02,22.69,2.13,34.72,3.25,4.05.39,8.11.77,12.15,1.15,4.05.38,8.09.75,12.07,1.13,1.07.1,2.13.2,3.19.29,3.47.33,6.89.66,10.23.97,1.61.16,3.21.31,4.79.45,1.61.16,3.19.31,4.75.46.2.02.4.04.6.05,1.13.11,2.29.21,3.45.32,1.5.14,3.01.27,4.53.41.08.01.16.02.24.02.64.07,1.28.13,1.92.18.03.01.06.01.1.02.28.02.57.05.86.08.11.01.23.02.35.03,2.39.23,4.79.46,7.16.69.9.09,1.8.17,2.69.26,1.8.18,3.57.36,5.3.54.21.02.43.04.66.07.91.08,1.89.17,2.94.27,3.7.35,8.19.77,13.22,1.24.01,0,.01,0,.01,0,1,.09,2.02.19,3.06.29,2.53.23,5.17.48,7.89.74,1.13.1,2.28.21,3.44.31,26.02,2.45,58.24,5.47,72.88,6.87-.16,1.61-.31,3.22-.46,4.84l-.18,1.83c-.28,2.91-.56,5.84-.83,8.78-.05.51-.1,1.03-.15,1.55-.17,1.84-.35,3.69-.52,5.54-.05.59-.11,1.18-.17,1.77-.2,2.23-.41,4.46-.61,6.69-.06.61-.11,1.22-.17,1.82-.06.64-.12,1.29-.17,1.93-.06.56-.11,1.12-.16,1.68-.19,2.01-.37,4.02-.55,6.02-.05.56-.1,1.11-.15,1.67-.09,1.03-.19,2.06-.28,3.08Z"/>
      <path class="cls-2" d="m228.27,181.77c-9.9.4-36.9-.5-50.6-3.6-9.3-1.5-19.3-3.1-28.8-3.7-1.1-.3-3.2.4-3.4-1.1,1.3-2.1,9.5.3,12.2.1,15.1,1.6,29.5,5.2,44.6,6.1,8.6,1,31.8-1.2,26,2.2Z"/>
      <path class="cls-2" d="m229.07,174.07c-28.4,1.6-66.6-5.3-96.8-7.1-37.3-2.6-76.4,2-119.4-7.7,41.5,4.1,79,5.5,113.9,5.6,8.8.4,17.9,1.3,26.9,2.1,4.1.4,8.3.8,12.4,1.3,13.8,1.3,29.1,3.7,41.7,4,6.9.7,26.6-1.5,21.3,1.8Z"/>
      <path class="cls-2" d="m142.97,154.67c-7,3.9-16.9-.4-25.4.9-31.9,2.5-78,4.9-103.9-4.9,21.4,3.2,57.2,7.2,85,4.6,8.1-.4,15.4-1.7,23.5-1.6,6.9-.3,13,1.5,18.2.4.1,0,.3-.1.4-.1-.2-.1-.4-.1-.8-.2-29.1-4.6-60.8-8.9-90-11.1-10.5-1.1-30.1,1.6-34,2.2-1,.2-1.4.2-1.7-.7,20.6-7.6,57.2-.6,81.7,1.1,11.3,1.4,26.5,4.7,38,5.9,3.4.5,11,.7,9,3.5Z"/>
      <path class="cls-2" d="m112.97,151.27c-10.3-3.3-52.8-6.7-61.4-7.5-15.8-1.6-51.8,2.4-15.1,7.2,18.2,4.3,41.2,3.7,60.5,2.9,4.4-.1,5.9-.9,9.4-.9,2.4.1,7.8,1.2,6.6-1.7Zm-8.9,0c-11.8,1.7-30.9,1.3-42.8,1.5-11.9-1.3-27.1-3.9-38.1-5.9,15.3-3.4,39.7-.5,61.4,1.9,6.5.7,14.3,1.6,19.9,2.4-.1.1-.2.1-.4.1Z"/>
      <path class="cls-2" d="m229.77,170.47c-25.8.9-48.6-7.8-73.4-10.6-22.1-3-71.9,3.3-87.8,1.7-1.1,0-1.2-1.9.1-1.8,20.2,1.5,70.3-5.5,95.5-.9,14.1,2.4,28.3,6.8,42.9,8.4,6.5.8,13.7,1.3,22,1.4,1.2-.5,2.6,1.5.7,1.8Z"/>
      <path class="cls-2" d="m39.07,149.07c-11.8-5.9,24.2-1.9,26.3-1.7,4.9,1,19.7.3,19.8,2.3-4.3,5.2-40.5.5-46.1-.6Zm35.3.9c-10.7-.8-21.8-2.5-33.2-2.3,12.6,1.5,19.5,2.9,33.2,2.3Z"/>
      <path class="cls-2" d="m230.57,162.07c-31.4-2.2-71.2-11-103.7-16.1-25.9-3.2-55.2-6.7-80-10.8-8.6-.8-26.2.6-30,.9-1.1.1-1.4.2-1.7-.8.1-1.1.7-1,1.9-1.1,20.4-3.3,48.9,1.7,71.6,5.4,32.9,2.9,65.7,9.3,98.6,15,15.6,2.6,32.6,5.1,43.4,5.7,1.1,0,1.1,1.9-.1,1.8Z"/>
      <path class="cls-2" d="m230.97,154.67c-33.7.3-86.9-13.4-124.3-14.6-12-1.2-24.7-2.4-35.8-4.8-18.5-4.2-29.7-3.8-48.2-3.1-2-.4-6.1,1.4-7.2-.6,28.3-5.8,55.2,3.3,84.3,6.1,27.3,2.5,54.7,4.9,81.4,10.2,20.5,3.3,42.3,6.2,49.5,5.2,1.1-.4,1.5,1.4.3,1.6Z"/>
      <path class="cls-2" d="m232.67,143.77c-.2.6-.9.8-1.4.6-12-2.9-29.2-3.8-40.4-3.7-6.4.1-13.9-1-22.3-2.4-26.2-5.2-53.1-6.3-79.9-7.9-21.7-1.3-51.3-2.8-70.9-4-.7,0-1.8,0-1.7-1,.1-1,1.1-.9,1.9-.8,8.8.6,21.4,1.2,34.8,2,18.3,1,36.9,2,55.2,3.2,8.2.5,16.6,1.1,24.7,1.7,19,.9,40.7,7.1,58.3,7.4,11.2-.1,28.4.8,40.6,3.7.5.1,1.3.4,1.1,1.2Z"/>
    </g>
    <g>
      <path class="cls-2" d="m198.35,182.01l-.05.02-.21.07h-.04c-.4.53-.8,1.06-1.2,1.59-1.05,1.4-2.12,2.81-3.19,4.23-.05.07-.1.14-.16.21-.31.42-.63.84-.94,1.26-1.34,1.78-2.68,3.57-4.03,5.36-.36.48-.72.97-1.09,1.45-.33.45-.67.9-1.01,1.34-.36.49-.72.98-1.09,1.46-1.21,1.61-2.41,3.22-3.61,4.8-.36.48-.71.95-1.07,1.42-.61.8-1.21,1.6-1.81,2.39-5.12-3.84-20.67-15.58-31.59-23.83-4.34-3.28-7.96-6.01-9.89-7.48-.04-.03.04,0,0-.03l-.23-.07-11.99-1.09s.01,0,.01.01c.02,0,.07.05.07.05,1.81,1.28,5.45,4.03,9.97,7.47,12.83,9.77,32.78,25.16,38.45,28.77.2,0,6.1-1.7,6.2-1.9l9.7-12.9c1.7-2.27,4.02-5.32,6.26-8.26,1.69-2.23,3.33-4.4,4.63-6.12,0-.01.01-.01.01-.02l-2.1-.2Zm-42.17-53.27l-.43-.33L36.75,38.71l-6.8,1.7c0,1.2-29.6,40.5-29.6,40.5,0,.1,49.9,37.6,49.9,37.7l.17.13,2.63,1.97h.04l12.06,1.1-.14-.1-2.45-1.85-.21-.15L7.85,78.51c1-1.34,2.01-2.68,3.03-4.02.06-.09.12-.17.19-.25,1.59-2.12,3.2-4.25,4.8-6.38.08-.09.15-.19.22-.29,1.25-1.65,2.5-3.3,3.76-4.96.34-.46.68-.91,1.03-1.37,1.42-1.88,2.84-3.75,4.26-5.63.37-.5.75-1,1.13-1.49.36-.49.73-.98,1.1-1.46.24-.33.49-.65.73-.97,1.15-1.53,2.3-3.05,3.44-4.56.05-.07.1-.13.15-.2,1.6-2.12,3.18-4.22,4.76-6.32l115.8,87.5.28.21,2.52,1.89,3.4.3-2.27-1.77Z"/>
      <path class="cls-2" d="m53.29,120.83l-.2-.15-.14-.1,12.06,1.1h.04l.39.3"/>
      <path class="cls-2" d="m116.35,154.57c.4.3.9.6,1.3.9-.9,0-1.8.1-2.7.1-.3-.8.7-1.6,1.4-1Z"/>
      <path class="cls-2" d="m182.35,205.17c-.5.7-1,.5-1.7,0-7.4-4.1-30.28-19.18-39.78-28.58l2.82.28c8.9,8.8,32.06,23.6,38.06,26.9.6.3.9.8.6,1.4Z"/>
      <path class="cls-2" d="m77.55,121.07c1.1.7,2.2,1.4,3.3,2.1-2.8,0-5.1-.8-7.3-2.5-18.5-12.9-46.3-28.6-63.9-47.5,22,15.9,47.7,36.1,67.9,47.9Z"/>
      <path class="cls-2" d="m187.05,198.97c-.5.7-1,.5-1.7,0-6.5-3.8-22.67-13.49-31.77-21.19l3.43.32c7.6,6.4,24.74,16.67,29.54,19.47.5.3.8.8.5,1.4Z"/>
      <path class="cls-2" d="m101.15,123.27c1.2.7,2.4,1.4,3.6,2.2l-4.2-.4c-1.4-.8-2.8-1.6-4.2-2.2h0c-25.1-12.7-66.1-35.9-81.7-56.6,20.6,18.3,58.7,44.7,86.5,57Z"/>
      <path class="cls-2" d="m109.05,125.87c-18.9-17.6-38.8-31.8-59.1-47.3-8.4-6.4-26.5-14.4-30.1-16-.9-.4-1.3-.6-1.1-1.5,3.2-1.3,24.6,10.7,32.3,16.1,20.3,15.5,39.9,29.4,58.8,46.9.8.7,1.6,1.4,2.4,2l-3.2-.2Z"/>
      <path class="cls-2" d="m23.35,69.17c-1.1-1.1-1.1-1.5-1-2h0c9.9-5.6,72.2,46.8,76.5,51.8-.9,3.8-6.7-2.9-8.8-3.2-3.1-1-10.3-5.1-15.5-8.4-5.2-3.4-17.3-9.6-21.5-12.8-9-7.1-22.1-18.5-29.7-25.4Zm.8-1.4h0Zm67.6,46.7c-20.6-16.2-47.5-39.4-66.9-46.4,8.3,7.5,19.9,17.7,29.3,25.1,9.5,5.7,28.5,17.6,37.6,21.3Z"/>
      <path class="cls-2" d="m90.65,122.27c1.5.7,3,1.4,4.5,2.2l-5-.5h0c-1.6-.8-3.2-1.5-4.8-2.3-12.8-6.8-35.2-19-28.6-18.9,0,.2,20.9,13.8,33.9,19.5Z"/>
      <path class="cls-2" d="m120.65,139.47c1,.7,2.1,1.4,3.1,2.1"/>
      <path class="cls-2" d="m189.55,196.37c-.5.9-1.5.2-2.1-.2-8.9-5.6-16.02-10.86-23.42-17.26,5.1,0,7.52,4.76,12.12,7.36,3.9,2.9,8.4,5.9,13.1,8.9.4.2.6.8.3,1.2Z"/>
      <path class="cls-2" d="m37.25,78.27c-7-11.2,21.6,11,23.3,12.3,3.6,3.4,16.6,10.6,15.6,12.4-6.6,2-34.7-20.8-38.9-24.7Zm29.5,19.3c-8.7-6.3-17.2-13.6-27-19.4,10,7.9,15.1,12.7,27,19.4Z"/>
      <path class="cls-2" d="m120.15,125.07c.8.7,1.5,1.3,2.3,2l-3.1-.3c-.8-.7-1.6-1.4-2.3-2h0c-22.8-19-44.5-35.6-65.9-54.2-6.9-5.2-22.6-13.3-26-15-.9-.5-1.4-.7-1.1-1.6.7-.9,1.1-.4,2.2.1,11.5,5.5,27.8,15,39.9,26.7,19.7,17.8,33.2,26,54,44.3Z"/>
      <path class="cls-2" d="m159.55,159.97c-1-.1-2-.2-3-.2-.8-.6-1.5-1.3-2.2-2,2.1-.2,3.7.6,5.2,2.2Z"/>
      <path class="cls-2" d="m194.55,189.67c-2.7,1-9.45-6.47-12.85-8.67l4.15.37c3.6,2.8,4.8,4.4,7.8,6.5.5.4,1.5,1,.9,1.8Z"/>
      <path class="cls-2" d="m128.55,125.87c.9.7,1.8,1.4,2.7,2.1l-3.3-.3c-17-13.3-44.4-32.8-56.3-44.4-13.6-13.4-23.3-18.9-39.4-28-1.4-1.4-6-2.1-5.8-4.3,18,7.3,31.4,17,46.5,31,11.4,11.2,38.9,30.9,55.6,43.9Z"/>
      <path class="cls-2" d="m144.75,127.37c.8.7,1.6,1.4,2.3,2l-3.1-.3c-20.6-19.6-82.1-57.1-113.9-83.2,34.8,21.7,93.2,63.5,114.7,81.5Z"/>
      <path class="cls-2" d="m165.55,144.97c1.1.9,2.2,1.7,3.3,2.4-3-.2-5.1-1-7.2-3.1,1.2.2,2.5.5,3.9.7Z"/>
    </g>
    <path class="cls-2" d="m158.16,139.55c-3.2.9-8.9,9.9-10.4,12.6.3.2-.14,1.32.16,1.22,5.34-8.74,7.94-12.42,13.24-11.82-.1-.4-.2-.8-.2-1.3-.5-.5-1.4-1.3-2.8-.7Z"/>
    <path class="cls-2" d="m147.12,152.46c-.08,1,1.18,1.54,1.75,1.08,2.1-2.8,7.54-15.79,12.24-11.89-.1-1,0-2.3.3-3.5-7.1-.8-11.44,10.6-14.14,14.1l-.15.21Z"/>
    <path class="cls-2" d="m164.67,145.27c-2-.8-.2-10.79-4-4.4,0-.7.1-1.5.3-2.3-.9,3.7.2,7.4,4.2,7v-.1c-.2,0-.3,0-.5-.2Z"/>
    <path class="cls-2" d="m161.37,137.37s0-.1.1-.1c-.1,0-.1.1-.1.1Z"/>
    <path class="cls-2" d="m161.47,137.17s0-.1.1-.1l-.1.1Z"/>
    <path class="cls-2" d="m161.07,138.37c.1-.3.2-.6.3-.9-.2.4-.3.7-.3.9Z"/>
    <path class="cls-2" d="m160.97,138.57v-.2c.1.1,0,.2,0,.2Z"/>
    <path class="cls-2" d="m161.07,138.37c-.2.8-.3,1.7-.3,2.5.6-1.2,1.7-1.9,2.3-.7.1-1.7,0-4.6,2-5.2-2.5-.2-3.5,1.4-4,3.4Z"/>
    <path class="cls-2" d="m164.37,144.97l-.1-.1c2.1,2.9,4.6-5.2,2.6-7.8-2.6-1.5-3.5,4.4-2.5,7.9Zm.7,0s1.5-2,1.9-6.1c0,0,.8,4.7-1.9,6.1Z"/>
    <path class="cls-2" d="m166.77,136.17c.1.2.2.5.4.8-.1-.3-.2-.6-.4-.8Z"/>
    <path class="cls-2" d="m167.27,137.17q0,.1.1.2c-.1-.1-.1-.2-.1-.2Z"/>
    <path class="cls-2" d="m167.27,137.37q0,.1.1.2c-.1-.1-.1-.2-.1-.2Z"/>
    <path class="cls-2" d="m167.17,136.97q0,.1.1.2-.1-.1-.1-.2Z"/>
    <path class="cls-2" d="m164.07,144.57c0,.1.1.1.1.1,0,0-.1,0-.1-.1Z"/>
    <path class="cls-2" d="m164.07,144.57c-.6-1-1-2.5-1-4.1.1,1.6.4,3.1,1,4.1Z"/>
    <path class="cls-2" d="m164.17,144.77c0,.1.1.1.1.1,0,0,0-.1-.1-.1Z"/>
    <path class="cls-2" d="m163.77,135.97s.1,0,0,0c.1-.1,0,0,0,0Z"/>
    <path class="cls-2" d="m163.07,138.57v-.1c.1,0,0,.1,0,.1Z"/>
    <path class="cls-2" d="m163.47,136.87q0-.1.1-.2c-.1.1-.1.2-.1.2Z"/>
    <path class="cls-2" d="m163.17,137.97v-.1c.1,0,0,0,0,.1Z"/>
    <path class="cls-2" d="m164.87,134.97c-3.4,1.5-3,8.7-.5,10-1.1-3.8.8-9.52,2.9-7.5h0c-.2-1.1-1-2.6-2.4-2.5Z"/>
    <path class="cls-2" d="m165.07,144.97c2.7-1.4,1.9-6.1,1.9-6.1-.4,4.1-1.9,6.1-1.9,6.1Z"/>
    <g class="cls-3">
      <path class="cls-2" d="m165.07,144.97c2.7-1.4,1.9-6.1,1.9-6.1-.4,4.1-1.9,6.1-1.9,6.1Z"/>
    </g>
    <path class="cls-2" d="m112.72,135.3h0c-1.1-4-2.4-15.6-5.9-18.8-.5,0-1,.1-1.4,0-.1-.3,5.79,17.46,6.2,18.7-.1.1.5.4,1.1.1Z"/>
    <path class="cls-2" d="m113.87,135.17s.1-.1,0,0q0-.1,0,0Z"/>
    <path class="cls-2" d="m107.87,116.2c-.6.2-1.2.3-1.8.3,0,0,5.92,17.92,6.19,18.92.25-.11.18.1.71-.32-.2-.7-4.1-18-4.4-19.1-.2,0-.4.1-.7.2Z"/>
    <path class="cls-2" d="m105.97,116.87c1,.1,2.1-.1,3.2-.4-.7.2-1.5.3-2.2.4,3.9-3.1-4.5-1.3-5-3.5h-.1c.1,1.5,1.3,3.8,4.1,3.5Z"/>
    <path class="cls-2" d="m111.82,112.64c-.6,1.7-3.2,1.7-4.8,1.9,1.2.4.8,1.4-.3,2,2.2-.2,5.8-.9,5.1-3.9h0Z"/>
    <path class="cls-2" d="m110.57,111.47c-.2-.1-.5-.2-.8-.2.3,0,.6.1.8.2Z"/>
    <path class="cls-2" d="m111.07,111.67q.1.1,0,0,.1.1,0,0Z"/>
    <path class="cls-2" d="m102.97,114.27c-.1,0-.1-.1-.2-.1q.1.1.2.1Z"/>
    <path class="cls-2" d="m102.97,114.27c1,.5,2.5.7,4,.6-1.5,0-3-.1-4-.6Z"/>
    <path class="cls-2" d="m102.77,114.17c-.1,0-.1-.1-.1-.1,0,.1.1.1.1.1Z"/>
    <g>
      <path class="cls-2" d="m102.09,114.07c.1.1.3.2.5.3-.1,0-.1-.1-.1-.1,3.8.7,9.8-.7,6.8-2.9-3.3-.4-8.7,1-7.2,2.7Z"/>
      <path class="cls-2" d="m108.59,112.07c-3.5.1-5.9,1.6-5.9,1.6,2-2.5,5.9-1.6,5.9-1.6Z"/>
    </g>
    <path class="cls-2" d="m108.77,114.77h.1c0-.1,0,0-.1,0Z"/>
    <path class="cls-2" d="m109.47,114.67h.1q-.1-.1-.1,0Z"/>
    <path class="cls-2" d="m110.37,114.37q.1,0,.2-.1-.1.1-.2.1Z"/>
    <path class="cls-2" d="m109.87,114.57h.1c-.1-.1-.1,0-.1,0Z"/>
    <path class="cls-2" d="m102.47,114.07c1.5,1.2,9.9,1.6,9.4-1.5h0c-.5-.9-1.6-1.3-2.7-1.4h0c3.1,2.2-2.9,3.6-6.7,2.9Z"/>
    <path class="cls-2" d="m108.67,111.77s-3.9-.9-5.9,1.6c0-.1,2.4-1.6,5.9-1.6Z"/>
    <g class="cls-3">
      <path class="cls-2" d="m108.67,111.77s-3.9-.9-5.9,1.6c0-.1,2.4-1.6,5.9-1.6Z"/>
    </g>
    <path class="cls-2" d="m128.67,155.36c-.1.1-.5.4-1.1.4.5-2.1,1-12.6.3-13.9-.6-.8-2.4-1.9-3.2-2.3-.3.8-.8,1.4-1.1,2.1,0,0,2.9.3,3.2,1.5.2,1-.5,9.2-.7,12,1.3,1,2.4.3,2.6.2Z"/>
    <path class="cls-2" d="m124.17,137.72c-.1.6-.2,1.2-.4,1.7.8.4,2.7,1.5,3.2,2.3.7,1.2.2,11.8-.3,13.9.6,0,1-.3,1.2-.4.3-2,1.7-14.5.7-15.6-.9-1.1-3.2-2.1-4.2-2.5-.2.2-.2.4-.2.6Z"/>
    <path class="cls-2" d="m125.07,138.57c0-.3.1-.6.1-.8,0,.2-.1.5-.1.8Z"/>
    <path class="cls-2" d="m125.07,138.67c-.1.8-.3,1.4-.6,2.1.2-7.51-8.3-4.58-5.6,2v.1c3.1,1.9,5.6-.5,6.2-4.2Z"/>
    <path class="cls-2" d="m123.07,133.97c1.3,1.4.2,3.6-.4,5.2,1-.8,1.7.4,1.8,1.6.9-2.3,1.5-5.7-1.4-6.8q-.1,0,0,0Z"/>
    <path class="cls-2" d="m107.07,113.97c-.5.3-1,.6-1.5.9.5-.3,1-.6,1.5-.9Z"/>
    <path class="cls-2" d="m119.84,135.2c-2,2.3-2.94,7.83-.54,7.73.2,0,.3-.1.5-.2-.1,0,.78-.51.78-.41,7.47-8.84,1.29-9.03-.62-7.25m.03,1.35c-1.5,3.9-.8,6-.8,6-2-1.3.8-6,.8-6Z"/>
    <path class="cls-2" d="m105.57,114.87c-.5.3-1,.5-1.5.8.6-.3,1-.5,1.5-.8Z"/>
    <path class="cls-2" d="m122.57,139.47c-.7,1.3-1.5,2.4-2.4,3,.8-.6,1.7-1.8,2.4-3Z"/>
    <path class="cls-2" d="m122.57,139.27c0,.1-.1.1-.1.2.1-.1.1-.2.1-.2Z"/>
    <path class="cls-2" d="m123.17,137.77v-.1c.1,0,.1.1,0,.1Z"/>
    <path class="cls-2" d="m122.77,139.07c0-.1.1-.1.1-.2-.1,0-.1.1-.1.2Z"/>
    <path class="cls-2" d="m122.87,138.87c0-.1.1-.1.1-.2-.1,0-.1.1-.1.2Z"/>
    <path class="cls-2" d="m122.67,139.27c0-.1.1-.1.1-.2-.1,0-.1.1-.1.2Z"/>
    <path class="cls-2" d="m122.87,138.57q0-.1.1-.1t-.1.1Z"/>
    <path class="cls-2" d="m123.07,138.27q0-.1.1-.1c-.1-.1-.1,0-.1.1Z"/>
    <path class="cls-2" d="m122.97,138.37q0-.1.1-.1l-.1.1Z"/>
    <path class="cls-2" d="m123.17,138.07q0-.1.1-.1c-.1-.1-.1,0-.1.1Z"/>
    <path class="cls-2" d="m120.57,134.97c2.8-.2,1.3,5.1-.9,7.6,3.5-1,6.4-12.8.3-7.5.2,0,.4-.1.6-.1Z"/>
    <path class="cls-2" d="m120.07,136.27s-2.9,4.7-.8,6c.1,0-.7-2,.8-6Z"/>
    <g class="cls-3">
      <path class="cls-2" d="m120.07,136.27s-2.9,4.7-.8,6c.1,0-.7-2,.8-6Z"/>
    </g>
  </g>
  <path class="cls-1" d="m159.7,77.6l30.5,16.9,5-9-30.5-16.9-5,9h0Zm37.9,7.7l64.1,35.4c1.7,9.3-8.6,18.6-14.3,17.2-11.4-6.3,9.4-5.5-35.9-25.8-7.9-3.5-13.5-10.8-20.1-15.7l6.2-11.1h0Zm-67.9.6l4.2-7.6c5.3-.7,6.9-3.7,4.9-8.9,7.4-17.1,18.3-25.2,32.9-24.4-14,9.1-16.8,16.3-8.5,21.8-1.2,2.1-3.1,5.6-5.8,10.4-8.7-4.4-11.9-1.4-9.5,8.9l-4.2,7.6-14-7.8Z"/>
  <path class="cls-2" d="m177.87,41.32c11.5-13.32,29.93-18.81,46.91-14.82,5.58,1.22,10.83,3.19,15.88,5.74-5.1-2.25-10.48-4.05-15.99-5.05-10.92-1.99-22.54-.34-32.08,5.29-4.71,2.78-8.96,6.44-12.38,10.64-1.29,1.71-3.72-.2-2.34-1.8h0Z"/>
  <path class="cls-2" d="m169.22,32.91c11.5-13.32,29.93-18.81,46.91-14.82,5.58,1.22,10.83,3.19,15.88,5.74-5.1-2.25-10.48-4.05-15.99-5.05-10.92-1.99-22.54-.34-32.08,5.29-4.71,2.78-8.96,6.44-12.38,10.64-1.29,1.71-3.62-.19-2.34-1.8h0Z"/>
  <g>
    <g>
      <path class="cls-2" d="m52.8,10c-.5-1.1-.5-2.2,0-3.5.3-.8.8-1.5,1.4-1.9s1.3-.8,2.1-.9c.8-.1,1.7,0,2.6.4.8.3,1.4.7,1.8,1.2.4.5.8,1.1,1,1.8l2.1-5.1c.1-.2.2-.4.3-.4.2-.1.3-.1.5,0,.3,0,.4.1.4.3.1.2,0,.3,0,.5l-4.5,11.2c-.1.2-.2.4-.3.4-.2.1-.3.1-.5,0s-.3-.2-.4-.4c-.1-.2,0-.3,0-.6l.4-1c-.6.4-1.3.6-2,.7-.7.1-1.5-.1-2.2-.4-1.4-.4-2.3-1.2-2.7-2.3Zm6,1.6c.8-.3,1.5-.9,1.8-1.9.3-.7.4-1.3.3-1.9s-.4-1.1-.8-1.6c-.4-.5-.9-.8-1.5-1.1-1-.4-1.9-.4-2.8-.1s-1.4,1-1.8,2c-.4,1-.4,1.9-.1,2.7.4.7,1,1.3,2.1,1.7,1,.5,2,.5,2.8.2Z"/>
      <path class="cls-2" d="m59.95,14.58c-.15,0-.3-.04-.47-.13-.3-.15-.48-.33-.62-.62-.13-.27-.1-.49-.07-.63,0-.05.02-.11.02-.19v-.03c-.32.1-.66.17-1.03.23-.9.13-1.84-.17-2.47-.44-1.45-.41-2.5-1.31-2.97-2.57-.55-1.22-.55-2.45,0-3.87.34-.91.92-1.69,1.59-2.14.63-.42,1.4-.87,2.31-.98.96-.12,1.95.03,2.87.44.85.32,1.53.77,1.99,1.34.18.22.39.51.59.84l1.66-4.02c.14-.29.3-.61.61-.69.27-.12.5-.13.77-.01.51.04.73.35.77.68.09.24.04.43.02.54l-.05.26-4.5,11.2c-.15.29-.31.61-.61.69-.14.06-.27.09-.4.09Zm-.15-1.47c0,.1-.02.18-.03.25.03.12.05.14.16.2l.05-.03s.06-.11.08-.15l4.45-11.09c0-.07.02-.13.03-.18h0s-.15-.06-.15-.06l-.05.03s-.06.11-.08.15l-2.63,6.4-.19-.67c.06.61-.06,1.24-.36,1.95-.1.33-.23.61-.39.86l.1-.06-.97,2.41Zm-2.92-8.94c-.17,0-.34.01-.52.03-.71.09-1.35.46-1.88.82-.5.33-.94.94-1.21,1.66-.45,1.18-.46,2.14-.01,3.12v.04c.37.97,1.17,1.64,2.38,1.99.17.07.33.13.49.19-.12-.05-.23-.1-.35-.16-1.04-.37-1.79-.98-2.31-1.9-.39-1.03-.36-2.06.07-3.13.34-.85.89-1.88,2.11-2.29,1.05-.35,2.08-.32,3.14.11.72.36,1.26.7,1.71,1.25.1.13.21.27.31.42-.14-.22-.3-.45-.49-.7-.34-.43-.88-.78-1.58-1.04-.61-.27-1.23-.4-1.85-.4Zm.2,1.12c-.37,0-.74.06-1.12.19-.66.22-1.1.72-1.49,1.71-.33.83-.37,1.62-.1,2.34.37.63.94,1.09,1.8,1.41.85.42,1.7.48,2.45.2h0c.53-.2,1.21-.63,1.5-1.58.29-.68.37-1.18.29-1.67-.07-.44-.28-.85-.7-1.37-.33-.42-.76-.68-1.33-.97-.44-.17-.87-.26-1.3-.26Z"/>
    </g>
    <g>
      <path class="cls-2" d="m64.3,15.3c-.5-.6-.8-1.4-.9-2.1-.1-.8,0-1.5.3-2.3s.8-1.4,1.4-1.9,1.3-.8,2.1-.9c.8-.1,1.7,0,2.7.4.9.4,1.7.9,2.2,1.6.5.6.8,1.4.9,2.1.1.8,0,1.5-.3,2.3-.3.7-.8,1.4-1.3,1.9-.6.5-1.3.8-2.1.9s-1.7,0-2.7-.4c-1-.4-1.8-.9-2.3-1.6Zm5.3.7c.8-.3,1.4-1,1.8-1.9s.4-1.9,0-2.7-1-1.4-2-1.8c-1-.4-1.9-.4-2.7-.1-.8.3-1.4,1-1.8,1.9s-.4,1.9,0,2.7,1,1.4,2,1.8c1,.3,1.9.4,2.7.1Z"/>
      <path class="cls-2" d="m68.72,17.84c-.75,0-1.52-.16-2.31-.47-1.17-.47-1.99-1.04-2.51-1.76-.51-.62-.88-1.47-1-2.33-.11-.87,0-1.65.33-2.55.3-.8.81-1.49,1.55-2.11.67-.56,1.46-.9,2.36-1.01.94-.12,1.94.03,2.95.43,1.16.52,1.92,1.08,2.42,1.77.5.59.86,1.45.99,2.32.11.87,0,1.65-.33,2.55-.31.73-.84,1.5-1.42,2.08-.71.59-1.5.93-2.39,1.04-.21.03-.43.04-.64.04Zm-.94-9.27c-.18,0-.35.01-.52.03-.71.09-1.31.35-1.84.79-.61.51-1.01,1.05-1.25,1.69-.28.74-.36,1.36-.27,2.06.1.67.39,1.37.79,1.84l.02.03c.4.56,1.08,1.03,2.08,1.43.85.34,1.68.47,2.45.37.71-.09,1.31-.35,1.84-.79.46-.46.9-1.11,1.16-1.71.27-.72.35-1.34.26-2.04-.1-.67-.39-1.37-.79-1.84-.41-.57-1.06-1.04-2.02-1.46-.65-.26-1.3-.39-1.92-.39Zm.77,8.12c-.53,0-1.12-.1-1.79-.3-1.1-.44-1.82-1.09-2.3-2.06s-.47-2.1,0-3.13c.48-1.09,1.2-1.83,2.08-2.17.96-.36,1.99-.32,3.06.1,1.06.42,1.78,1.07,2.26,2.04.46.93.47,2.1,0,3.13-.48,1.09-1.2,1.84-2.08,2.17h0c-.38.14-.78.21-1.23.21Zm-.67-6.89c-.35,0-.68.06-1,.18-.79.29-1.26,1.05-1.52,1.63-.34.76-.34,1.61,0,2.27.37.75.91,1.23,1.74,1.56.97.29,1.73.33,2.34.1h0c.79-.29,1.26-1.05,1.52-1.63.34-.76.34-1.61,0-2.27-.37-.75-.91-1.23-1.74-1.56-.46-.18-.91-.28-1.34-.28Z"/>
    </g>
    <g>
      <path class="cls-2" d="m77.2,9.3c-.1-.2-.1-.5,0-.7s.3-.4.5-.5.5-.1.7,0,.4.3.5.5.1.5,0,.7-.2.4-.5.5c-.2.1-.5.1-.7,0s-.4-.3-.5-.5Zm-3.9,10.1c-.1-.2,0-.3,0-.5l2.8-7c.1-.2.2-.4.3-.4s.3-.1.5,0,.3.2.4.4,0,.3,0,.5l-2.8,7c-.1.2-.2.4-.3.4s-.3.1-.5,0c-.2-.1-.3-.2-.4-.4Z"/>
      <path class="cls-2" d="m73.89,20.34c-.12,0-.27-.02-.41-.1-.3-.15-.48-.33-.62-.62h0c-.14-.29-.09-.52-.07-.64l.05-.26,2.8-7c.17-.34.36-.71.76-.71.14-.04.42-.1.72.05.3.15.48.33.62.62.14.29.09.52.07.65l-.05.26-2.8,7c-.17.34-.36.71-.76.71-.07.02-.18.04-.31.04Zm-.14-1.15c.05.09.07.11.17.16.02,0,.03,0,.04-.01.03-.05.06-.12.08-.16l2.75-6.89c0-.07.02-.13.03-.18-.03-.09-.06-.11-.16-.16-.02,0-.03,0-.04.01-.03.05-.06.11-.08.16l-2.75,6.89c0,.07-.02.13-.03.18h0Zm4.31-8.81c-.2,0-.41-.04-.59-.13-.3-.15-.58-.43-.72-.72h0c-.17-.34-.17-.8,0-1.15.15-.3.43-.57.72-.72.34-.17.8-.17,1.15,0,.3.15.57.43.72.72.17.34.17.8,0,1.15-.12.23-.29.59-.79.75-.13.07-.31.1-.49.1Zm-.02-1.85s-.1,0-.13.02c-.1.05-.23.17-.28.28-.03.06-.03.19,0,.25h0c.05.1.17.22.28.28.06.03.19.03.25,0,.16-.06.18-.09.28-.27.03-.06.03-.2,0-.25-.05-.1-.17-.22-.28-.28-.03-.02-.08-.02-.13-.02Z"/>
    </g>
    <g>
      <path class="cls-2" d="m77.1,21c-.1-.2,0-.3,0-.5l2.8-7c.1-.2.2-.4.3-.4s.3-.1.5,0,.3.2.4.4,0,.3,0,.5l-.4,1c.6-.4,1.3-.6,1.9-.6s1.4.1,2.1.4c1,.4,1.7,1,2,1.8s.3,1.7-.2,2.8l-1.8,4.3c-.1.2-.2.3-.4.4-.2.1-.3.1-.5,0s-.3-.2-.4-.4,0-.3.1-.5l1.8-4.3c.6-1.5.2-2.6-1.2-3.2-1-.4-1.8-.4-2.7-.1-.8.3-1.4,1-1.8,1.9l-1.4,3.5c-.1.2-.2.3-.3.4-.2.1-.3.1-.5,0-.1-.1-.2-.3-.3-.4Z"/>
      <path class="cls-2" d="m84.05,24.68c-.15,0-.3-.04-.47-.13-.29-.15-.48-.33-.62-.62-.2-.4-.03-.7.06-.87l1.83-4.35c.5-1.25.2-2.06-.94-2.55-.84-.33-1.52-.36-2.35-.08-.77.29-1.24,1.04-1.5,1.63l-1.39,3.48c-.15.31-.3.46-.41.57l-.13.09c-.34.17-.61.17-.95,0l-.13-.09c-.07-.07-.14-.17-.21-.28-.03-.04-.06-.09-.09-.12l-.09-.13c-.14-.29-.09-.52-.07-.65l.05-.26,2.8-7c.17-.34.36-.71.76-.71.13-.04.42-.1.72.05.29.15.48.33.62.62.14.29.09.52.07.65v.12c.32-.09.66-.14.99-.14.38,0,1.37.04,2.3.44,1.16.46,1.93,1.17,2.27,2.08.38,1,.31,2.04-.21,3.18l-1.79,4.29c-.16.33-.34.51-.64.65-.17.09-.32.13-.47.13Zm-.17-1.13c.03.05.06.07.14.11.16-.05.18-.07.23-.18l1.79-4.27c.42-.91.47-1.68.19-2.43-.24-.64-.82-1.15-1.72-1.51-.42-.18-.85-.27-1.21-.32.32.06.64.15.98.29,1.67.71,2.19,2.08,1.48,3.85l-1.88,4.45s0,0,0,0Zm-6.32-2.76s.07.09.1.14c.03-.04.06-.08.09-.14l1.38-3.46c.19-.42.41-.8.66-1.11l-.16.11.97-2.42c0-.07.02-.13.03-.18-.03-.09-.06-.11-.16-.16-.02,0-.03,0-.04.01-.03.05-.06.12-.08.16l-2.75,6.89c0,.07-.02.13-.03.17Z"/>
    </g>
    <g>
      <path class="cls-2" d="m87.1,25c-.1-.2,0-.3,0-.5l4.6-11.2c.1-.2.2-.4.3-.4s.3-.1.5,0,.3.2.4.4.1.3,0,.6l-3,7.3,6.9-1.5h.4c.2.1.3.2.3.4v.3c-.1.2-.2.3-.4.4l-3.7.8c.7,1,1.1,2,1.3,3s.2,2,0,3.1c0,.2-.1.3-.3.4s-.3.1-.5,0c-.4-.1-.5-.4-.4-.7.2-1.1.2-2.1,0-2.9s-.6-1.7-1.3-2.7l-2.7.6-1.2,2.6c-.1.2-.2.3-.3.4-.2.1-.3.1-.5,0s-.3-.2-.4-.4Z"/>
      <path class="cls-2" d="m94.15,28.68c-.14,0-.27-.04-.43-.1-.37-.11-.55-.32-.64-.49-.13-.25-.15-.54-.06-.84.17-.96.17-1.89-.01-2.62-.18-.73-.53-1.48-1.04-2.26l-2.13.47-1.1,2.38c-.14.29-.29.44-.4.54l-.13.09c-.34.17-.61.17-.95,0-.29-.15-.48-.33-.62-.62-.14-.29-.09-.52-.07-.65v-.1l.05-.17,4.6-11.2c.17-.33.35-.71.76-.71.14-.03.42-.1.72.05.3.15.48.33.62.62.18.36.15.61.03.98l-2.65,6.45,6.08-1.31h.52l.11.05c.14.07.58.29.58.85v.42l-.05.11c-.15.3-.33.48-.62.62l-.12.04-3,.65c.48.81.8,1.66.98,2.57.21,1.06.21,2.13,0,3.29,0,.47-.43.69-.57.76-.17.09-.32.13-.47.13Zm.05-.99s0,.01,0,.01c0,0,0,0,0-.01Zm-1.78-6.45l.19.27c.68.97,1.14,1.94,1.38,2.86.22.87.22,1.94,0,3.11l-.03.12.16.04.09-.03c.18-1.1.18-2,0-2.92-.2-1.01-.6-1.93-1.22-2.81l-.43-.62,4.37-.94s.05-.04.07-.06v-.07h-.15l-7.78,1.69,3.36-8.18c.03-.1.04-.14.04-.15-.07-.14-.1-.16-.2-.21-.02,0-.03,0-.04.01-.03.05-.06.12-.08.16l-4.55,11.09c0,.07-.02.13-.03.18h-.02c.05.09.07.11.18.16h0s.08-.09.12-.17l1.3-2.81,3.27-.73Z"/>
    </g>
  </g>
  <g>
    <g>
      <path class="cls-2" d="m100.4,65.5c-1.6.1-3-.6-4.3-1.9-.8-.8-1.4-1.8-1.7-2.8s-.3-2.1,0-3.1c.3-1.1.9-2.1,1.9-3,.8-.8,1.7-1.4,2.5-1.6.9-.3,1.8-.3,2.8-.2l-5.4-5.5c-.2-.2-.3-.4-.3-.7,0-.2.1-.4.3-.6.2-.2.4-.3.6-.3s.4.1.7.3l11.5,11.7c.2.2.3.4.3.7,0,.2-.1.4-.3.6s-.4.3-.6.3-.5-.1-.7-.3l-1.1-1.1c.2,1,.1,1.9-.2,2.8-.3.9-.9,1.8-1.7,2.6-1.3,1.3-2.8,2.1-4.3,2.1Zm5.2-6.8c.1-1.2-.4-2.3-1.4-3.3-.7-.7-1.4-1.1-2.2-1.3s-1.6-.1-2.4.2-1.5.7-2.2,1.4c-1.1,1.1-1.6,2.2-1.6,3.4s.5,2.3,1.5,3.3c1.1,1.1,2.2,1.6,3.3,1.5,1.1,0,2.2-.6,3.3-1.7,1-1.1,1.6-2.3,1.7-3.5Z"/>
      <path class="cls-2" d="m100.1,66.01c-1.54,0-2.97-.68-4.35-2.06-.85-.85-1.5-1.92-1.83-3.01-.33-1.09-.33-2.3,0-3.39.34-1.23,1.01-2.29,2.04-3.23.88-.88,1.85-1.5,2.71-1.71.56-.19,1.13-.26,1.67-.27l-4.51-4.59c-.3-.3-.44-.64-.44-1.05,0-.34.15-.66.45-.95.59-.59,1.22-.54,1.93-.06l.08.07,11.5,11.7c.3.3.44.64.44,1.05,0,.34-.15.66-.45.95-.3.3-.62.45-.95.45-.28,0-.72-.12-1.05-.45l-.15-.15c-.03.54-.13,1.08-.32,1.65-.32.96-.95,1.92-1.82,2.8-1.47,1.46-3.07,2.24-4.64,2.25-.11,0-.21,0-.32,0Zm.43-12.67c-.61,0-1.1.08-1.57.23-.71.18-1.54.72-2.3,1.48-.91.82-1.48,1.72-1.77,2.78-.28.92-.28,1.92,0,2.82.28.94.84,1.86,1.57,2.59,1.27,1.27,2.55,1.84,3.92,1.75h.03c1.3,0,2.67-.68,3.95-1.95.76-.76,1.31-1.6,1.58-2.4.3-.89.35-1.69.18-2.54v-.07c0,.24,0,.47-.01.71-.11,1.28-.74,2.6-1.83,3.79-1.24,1.24-2.47,1.86-3.67,1.86-1.2.11-2.45-.44-3.65-1.65-1.09-1.09-1.65-2.32-1.65-3.65s.57-2.58,1.75-3.75c.69-.69,1.42-1.16,2.38-1.51.96-.36,1.84-.43,2.7-.22.91.23,1.68.68,2.43,1.43.68.68,1.15,1.41,1.38,2.16l-.15-.73,2.27,2.27c.1.1.27.15.35.15.06,0,.15-.06.25-.15s.15-.19.15-.25c0-.15-.03-.23-.15-.35l-11.47-11.67c-.1-.07-.3-.19-.38-.19-.06,0-.15.06-.25.15s-.15.19-.15.25c0,.15.03.23.15.35l6.37,6.49-1.37-.14c-.38-.04-.71-.06-1.02-.06Zm.62,1.16c-.43,0-.89.09-1.37.27-.83.31-1.43.69-2.02,1.29-.99.99-1.45,1.96-1.45,3.05s.44,2.04,1.35,2.95c.98.98,1.96,1.44,2.9,1.36.97,0,1.96-.52,2.99-1.56.92-1.02,1.47-2.12,1.56-3.19h0c.09-1.02-.33-1.97-1.26-2.9-.62-.62-1.24-.99-1.97-1.17-.24-.06-.48-.09-.73-.09Z"/>
    </g>
    <g>
      <path class="cls-2" d="m113.2,53.8c-1.1.3-2.2.3-3.2,0s-1.9-.8-2.7-1.6-1.3-1.7-1.6-2.7c-.3-1-.3-2.1,0-3.2.3-1.1.9-2.1,1.9-3.1s2-1.6,3.1-1.9c1.1-.3,2.2-.3,3.2,0s1.9.8,2.7,1.6,1.3,1.7,1.6,2.7c.3,1,.3,2.1,0,3.2-.3,1.1-.9,2.1-1.9,3.1-1,.9-2,1.6-3.1,1.9Zm3.6-6.3c0-1.2-.4-2.3-1.5-3.3-1-1-2.1-1.5-3.3-1.5s-2.3.6-3.3,1.6-1.6,2.1-1.6,3.3.4,2.3,1.5,3.3c1,1,2.1,1.5,3.3,1.5s2.3-.6,3.3-1.6c1-1,1.6-2.1,1.6-3.3Z"/>
      <path class="cls-2" d="m111.56,54.52c-.59,0-1.16-.08-1.71-.25-1.14-.34-2.09-.91-2.91-1.73s-1.38-1.77-1.73-2.91c-.33-1.09-.33-2.29,0-3.48.33-1.2.99-2.28,2.03-3.32s2.13-1.7,3.32-2.03c1.19-.32,2.39-.32,3.47,0,1.14.34,2.09.91,2.91,1.73.82.82,1.38,1.77,1.73,2.91.33,1.09.33,2.29,0,3.48-.33,1.2-.99,2.28-2.03,3.32-1.24,1.12-2.26,1.74-3.32,2.03h0c-.59.16-1.19.24-1.77.24Zm.77-12.95c-.49,0-1,.07-1.51.21-1.04.28-1.95.85-2.88,1.77s-1.49,1.84-1.77,2.88c-.27,1.01-.28,2.02,0,2.92.29.98.77,1.79,1.47,2.49s1.51,1.18,2.49,1.47c.91.27,1.92.27,2.93,0,.9-.25,1.79-.8,2.9-1.79.91-.91,1.47-1.82,1.75-2.86.27-1.01.28-2.02,0-2.92-.29-.98-.78-1.79-1.47-2.49s-1.51-1.18-2.49-1.47c-.45-.14-.93-.2-1.42-.2Zm-.44,11.32c-1.33,0-2.56-.55-3.65-1.65-1.1-1-1.65-2.2-1.65-3.65,0-1.27.59-2.49,1.75-3.65,2.38-2.38,5.18-2.23,7.31-.1,1.1,1,1.65,2.2,1.65,3.65,0,1.27-.59,2.49-1.75,3.65-1.16,1.16-2.39,1.75-3.65,1.75Zm.1-9.7c-.99,0-1.98.49-2.95,1.45-.96.96-1.45,1.96-1.45,2.95,0,1.17.42,2.1,1.34,2.93.93.93,1.89,1.37,2.96,1.37.99,0,1.98-.49,2.95-1.45.96-.96,1.45-1.96,1.45-2.95,0-1.17-.42-2.1-1.34-2.93-.93-.93-1.89-1.37-2.96-1.37Z"/>
    </g>
    <g>
      <path class="cls-2" d="m112.5,34.3c-.3,0-.6-.1-.9-.3-.2-.2-.3-.5-.3-.9,0-.3.1-.6.4-.9.2-.2.6-.4.9-.4.4,0,.7.1.9.3.2.2.3.5.3.9s-.2.7-.4.9c-.3.3-.6.4-.9.4Zm10.7,10.3c-.2,0-.4-.1-.7-.3l-7.3-7.3c-.2-.2-.3-.4-.3-.7,0-.2.1-.4.3-.6.2-.2.4-.3.6-.3s.4.1.7.3l7.3,7.3c.2.2.3.4.3.7,0,.2-.1.4-.3.7-.2.2-.4.2-.6.2Z"/>
      <path class="cls-2" d="m123.2,45.1c-.34,0-.62-.15-.98-.38l-7.38-7.36c-.3-.3-.45-.64-.45-1.05,0-.34.15-.66.45-.95.59-.59,1.22-.54,1.93-.06l7.38,7.36c.3.3.45.64.45,1.05,0,.33-.15.62-.38.98-.41.42-.79.42-1.02.42Zm-.35-1.15s.25.15.35.15c.19,0,.2,0,.25-.05,0,0,.15-.25.15-.35,0-.15-.03-.23-.15-.35l-7.3-7.3s-.25-.15-.35-.15c-.06,0-.15.06-.25.15s-.15.19-.15.25c0,.15.03.23.15.35l7.3,7.3s0,0,0,0Zm-10.35-9.15c-.4,0-.79-.13-1.18-.38-.37-.36-.52-.78-.52-1.32,0-.47.18-.89.55-1.25.27-.27.79-.55,1.25-.55.53,0,.96.15,1.25.45.3.3.45.72.45,1.25,0,.46-.19.9-.55,1.25-.36.36-.78.55-1.25.55Zm.1-2.5c-.14,0-.42.13-.55.25-.22.22-.25.4-.25.55,0,.26.05.44.15.55.14.08.35.15.55.15.15,0,.32-.03.55-.25.17-.17.25-.35.25-.55,0-.26-.05-.45-.15-.55-.1-.1-.29-.15-.55-.15Z"/>
    </g>
    <g>
      <path class="cls-2" d="m127.1,40.7c-.2,0-.4-.1-.7-.3l-7.3-7.3c-.2-.2-.3-.4-.3-.7s.1-.4.3-.6c.2-.2.4-.3.6-.3s.4.1.7.3l1,1c-.1-1-.1-1.9.3-2.8.3-.9.8-1.7,1.5-2.4,1.1-1.1,2.2-1.6,3.4-1.6s2.3.6,3.5,1.7l4.5,4.5c.2.2.3.4.3.7,0,.2-.1.4-.3.6-.2.2-.4.3-.6.3s-.4-.1-.6-.3l-4.5-4.5c-1.6-1.6-3.2-1.6-4.7-.1-1,1-1.5,2.1-1.5,3.3s.5,2.3,1.4,3.2l3.7,3.7c.2.2.3.4.3.7,0,.2-.1.5-.3.7-.2.1-.5.2-.7.2Z"/>
      <path class="cls-2" d="m127.1,41.2c-.33,0-.62-.15-.98-.38l-7.38-7.36c-.3-.3-.45-.64-.45-1.05,0-.51.23-.73.45-.95.59-.59,1.22-.54,1.93-.06l.17.17c.02-.58.13-1.17.39-1.76.31-.92.85-1.8,1.6-2.55,1.17-1.17,2.4-1.75,3.75-1.75,1.27,0,2.46.56,3.84,1.83l4.52,4.52c.3.31.45.64.45,1.05,0,.34-.15.66-.45.95-.59.59-1.32.59-1.91,0l-4.5-4.5c-1.39-1.4-2.66-1.43-3.99-.1-.91.91-1.35,1.87-1.35,2.95s.43,2.03,1.25,2.85l3.7,3.7c.3.3.45.64.45,1.05,0,.37-.18.78-.45,1.05l-.13.09c-.23.12-.62.25-.92.25Zm-.35-1.15s.25.15.35.15c.07,0,.24-.04.39-.11.07-.1.11-.23.11-.29,0-.15-.03-.23-.15-.35l-3.7-3.7c-1.01-1.01-1.55-2.24-1.55-3.55s.55-2.56,1.65-3.65c1.71-1.71,3.63-1.67,5.41.1l4.5,4.5c.19.19.3.19.49,0,.1-.1.15-.19.15-.25,0-.15-.03-.23-.15-.35l-4.5-4.5c-1.17-1.07-2.14-1.55-3.15-1.55-1.09,0-2.06.46-3.05,1.45-.64.64-1.11,1.38-1.38,2.2-.37.83-.37,1.63-.28,2.59l.14,1.39-1.99-1.99s-.25-.15-.35-.15c-.06,0-.15.06-.25.15q-.15.15-.15.25c0,.15.03.23.15.35l7.3,7.3s0,0,0,0Z"/>
    </g>
    <g>
      <path class="cls-2" d="m137.5,30.3c-.2,0-.4-.1-.7-.3l-11.7-11.7c-.2-.2-.3-.4-.3-.7,0-.2.1-.4.3-.6.2-.2.4-.3.6-.3s.5.1.7.3l7.6,7.6,1.8-9.4c0-.2.1-.4.2-.5.2-.2.4-.2.7-.2.1,0,.3.1.4.2.2.2.3.4.2.8l-1,5.1c1.6-.3,3.1-.4,4.5-.1,1.3.2,2.6.8,3.9,1.6.2.1.3.3.4.6,0,.2-.1.4-.2.6-.4.4-.8.4-1.1.2-1.3-.9-2.5-1.4-3.6-1.5-1.1-.2-2.4-.1-4.1.2l-.7,3.7,2.8,2.8c.2.2.3.4.3.6s-.1.5-.3.6c-.2.3-.4.4-.7.4Z"/>
      <path class="cls-2" d="m137.5,30.8c-.33,0-.62-.15-.98-.38l-11.78-11.76c-.3-.3-.45-.64-.45-1.05,0-.34.15-.66.45-.95.29-.3.62-.45.95-.45.28,0,.72.12,1.05.45l6.93,6.93,1.62-8.47c0-.21.13-.55.34-.76.35-.35.72-.35,1.05-.35.27,0,.59.18.75.35.36.36.46.75.33,1.27l-.86,4.36c1.55-.23,2.82-.22,3.97.03,1.21.18,2.54.73,4.06,1.66.34.17.5.52.61.87l.03.16c0,.32-.13.58-.25.82l-.09.13c-.63.63-1.31.55-1.73.26-1.23-.85-2.36-1.33-3.37-1.42-.94-.17-2.03-.13-3.63.14l-.59,3.1,2.61,2.61c.3.3.45.62.45.95s-.14.74-.45.97c-.27.36-.61.53-1.05.53Zm-.35-1.15s.25.15.35.15c.11,0,.17,0,.28-.18l.07-.11.12-.06s.02-.09.02-.15-.06-.15-.15-.25l-2.99-2.99.81-4.3.34-.06c1.91-.34,3.19-.4,4.28-.2,1.14.1,2.43.63,3.79,1.58.04.03.17.11.41-.09.04-.09.08-.17.1-.24-.06-.17-.1-.21-.11-.21-1.44-.88-2.65-1.38-3.75-1.55-1.22-.26-2.59-.23-4.33.1l-.72.14,1.14-5.82c.06-.23.03-.26-.06-.35-.02-.02-.08-.05-.11-.06-.23,0-.24.02-.29.06-.02.02-.05.09-.05.15l-1.99,10.42-8.27-8.27c-.1-.1-.27-.15-.35-.15-.06,0-.15.06-.25.15-.1.1-.15.19-.15.25,0,.15.03.23.15.35l11.7,11.7s0,0,0,0Z"/>
    </g>
  </g>
</svg>